<?xml version="1.0" encoding="UTF-8" standalone="no"?>
<!DOCTYPE svg PUBLIC "-//W3C//DTD SVG 1.1//EN"
 "http://www.w3.org/Graphics/SVG/1.1/DTD/svg11.dtd">
<!-- Generated by graphviz version 12.2.1 (0)
 -->
<!-- Title: tzset Pages: 1 -->
<svg width="332pt" height="220pt"
 viewBox="0.00 0.00 332.03 219.50" xmlns="http://www.w3.org/2000/svg" xmlns:xlink="http://www.w3.org/1999/xlink">
<g id="graph0" class="graph" transform="scale(1 1) rotate(0) translate(4 215.5)">
<title>tzset</title>
<polygon fill="none" stroke="none" points="-4,4 -4,-215.5 328.03,-215.5 328.03,4 -4,4"/>
<!-- $TZ -->
<g id="node1" class="node">
<title>$TZ</title>
<ellipse fill="none" stroke="black" cx="129.08" cy="-193.5" rx="27" ry="18"/>
<text text-anchor="middle" x="129.08" y="-188.07" font-family="Times,serif" font-size="14.00">$TZ</text>
</g>
<!-- tzset -->
<g id="node2" class="node">
<title>tzset</title>
<ellipse fill="none" stroke="black" cx="129.08" cy="-105.75" rx="27.11" ry="18"/>
<text text-anchor="middle" x="129.08" y="-100.33" font-family="Times,serif" font-size="14.00">tzset</text>
</g>
<!-- $TZ&#45;&gt;tzset -->
<g id="edge1" class="edge">
<title>$TZ&#45;&gt;tzset</title>
<path fill="none" stroke="black" d="M129.08,-175.15C129.08,-163.76 129.08,-148.59 129.08,-135.43"/>
<polygon fill="black" stroke="black" points="132.58,-135.59 129.08,-125.59 125.58,-135.59 132.58,-135.59"/>
<text text-anchor="middle" x="156.08" y="-144.2" font-family="Times,serif" font-size="14.00">Timezone</text>
</g>
<!-- localtime -->
<g id="node3" class="node">
<title>localtime</title>
<ellipse fill="none" stroke="black" cx="44.08" cy="-18" rx="44.08" ry="18"/>
<text text-anchor="middle" x="44.08" y="-12.57" font-family="Times,serif" font-size="14.00">localtime</text>
</g>
<!-- tzset&#45;&gt;localtime -->
<g id="edge2" class="edge">
<title>tzset&#45;&gt;localtime</title>
<path fill="none" stroke="black" d="M114.66,-90.2C101.87,-77.3 82.94,-58.21 67.91,-43.04"/>
<polygon fill="black" stroke="black" points="70.61,-40.79 61.08,-36.15 65.64,-45.72 70.61,-40.79"/>
<text text-anchor="middle" x="121.94" y="-56.45" font-family="Times,serif" font-size="14.00">Good info</text>
</g>
<!-- tzname, timezone, daylight -->
<g id="node4" class="node">
<title>tzname, timezone, daylight</title>
<ellipse fill="none" stroke="black" cx="215.08" cy="-18" rx="108.95" ry="18"/>
<text text-anchor="middle" x="215.08" y="-12.57" font-family="Times,serif" font-size="14.00">tzname, timezone, daylight</text>
</g>
<!-- tzset&#45;&gt;tzname, timezone, daylight -->
<g id="edge3" class="edge">
<title>tzset&#45;&gt;tzname, timezone, daylight</title>
<path fill="none" stroke="black" d="M143.67,-90.2C156.36,-77.54 175.04,-58.92 190.11,-43.89"/>
<polygon fill="black" stroke="black" points="192.37,-46.59 196.98,-37.05 187.43,-41.63 192.37,-46.59"/>
<text text-anchor="middle" x="232.28" y="-56.45" font-family="Times,serif" font-size="14.00">Bad (constant) info</text>
</g>
</g>
</svg>
